<svg width="18" height="20" viewBox="0 0 18 20" fill="none" xmlns="http://www.w3.org/2000/svg">
<path fill-rule="evenodd" clip-rule="evenodd" d="M9 1.80631C8.8589 1.80631 8.72246 1.81041 8.59054 1.8183C6.84299 1.92283 5.81915 2.69401 5.20878 3.57688C4.57193 4.49807 4.35241 5.59493 4.35241 6.31467V9.39157C4.35241 9.43317 4.35244 9.47423 4.35247 9.5148C4.35299 10.2572 4.35339 10.8306 4.17593 11.3719C4.13973 11.4823 4.09814 11.5908 4.05132 11.6969C3.82173 12.217 3.44073 12.6361 2.94744 13.1787C2.92049 13.2084 2.8932 13.2384 2.86558 13.2688C2.3897 13.793 2.0825 14.1337 1.89428 14.3934C2.20753 14.4291 2.65964 14.4307 3.35741 14.4307H14.6426C15.3404 14.4307 15.7925 14.4291 16.1057 14.3934C15.9175 14.1337 15.6103 13.793 15.1344 13.2688C15.1068 13.2384 15.0795 13.2084 15.0526 13.1787C14.5593 12.6361 14.1783 12.217 13.9487 11.6969C13.9019 11.5908 13.8603 11.4823 13.8241 11.3719C13.6466 10.8306 13.647 10.2572 13.6475 9.5148C13.6476 9.47424 13.6476 9.43317 13.6476 9.39157V6.31467C13.6476 5.59493 13.4281 4.49807 12.7912 3.57688C12.1809 2.69401 11.157 1.92283 9.40946 1.8183C9.27754 1.81041 9.1411 1.80631 9 1.80631ZM8.48832 0.0150515C8.65514 0.00507344 8.82568 0 9 0C9.17432 0 9.34485 0.00507344 9.51167 0.0150515C11.8024 0.15207 13.3117 1.21014 14.2249 2.53101C15.1116 3.81355 15.406 5.29492 15.406 6.31467V9.39157C15.406 10.3141 15.4167 10.5702 15.4905 10.7954C15.5079 10.8483 15.5278 10.9002 15.5502 10.951C15.6457 11.1675 15.808 11.3622 16.4204 12.0369L16.4597 12.0802C16.9064 12.5721 17.2982 13.0036 17.5567 13.3715C17.8062 13.7265 18.1183 14.2738 17.9544 14.9216C17.9096 15.0987 17.8381 15.2676 17.7426 15.4221C17.3932 15.987 16.7907 16.1257 16.3677 16.1804C15.9295 16.2371 15.3551 16.2371 14.7003 16.237H3.29975C2.64492 16.2371 2.07047 16.2371 1.63227 16.1804C1.20934 16.1257 0.606847 15.987 0.257411 15.4221C0.16186 15.2676 0.0903846 15.0987 0.0455701 14.9216C-0.118319 14.2738 0.193815 13.7265 0.443302 13.3715C0.701804 13.0036 1.09362 12.5721 1.54026 12.0802L1.57956 12.0369C2.19203 11.3622 2.35425 11.1675 2.44979 10.951C2.47221 10.9002 2.49213 10.8483 2.50946 10.7954C2.58331 10.5702 2.59398 10.3141 2.59398 9.39157V6.31467C2.59398 5.29492 2.88842 3.81355 3.7751 2.53101C4.68827 1.21014 6.19755 0.15207 8.48832 0.0150515Z" fill="white"/>
<path d="M8.99956 20C9.91349 20 10.6907 19.2877 10.9767 18.2944C11.107 17.8419 10.7216 17.4514 10.2623 17.4514H7.73683C7.27749 17.4514 6.89214 17.8419 7.02242 18.2944C7.30843 19.2877 8.08563 20 8.99956 20Z" fill="white"/>
</svg>
