<svg width="35" height="35" viewBox="0 0 35 35" fill="none" xmlns="http://www.w3.org/2000/svg">
<path fill-rule="evenodd" clip-rule="evenodd" d="M8.17546 1.26011e-06H8.32129C9.49066 -2.94151e-05 10.4769 -5.5261e-05 11.2818 0.0719307C12.1253 0.147376 12.9303 0.312029 13.682 0.740314C14.5343 1.22593 15.2448 1.92598 15.7399 2.77225C16.1782 3.52132 16.3466 4.32427 16.4236 5.16227C16.4968 5.95949 16.4968 6.93534 16.4967 8.08724V8.23601C16.4968 9.3879 16.4968 10.3638 16.4236 11.161C16.3466 11.999 16.1782 12.8019 15.7399 13.551C15.2448 14.3973 14.5343 15.0973 13.682 15.5829C12.9303 16.0112 12.1253 16.1759 11.2818 16.2513C10.4769 16.3233 9.49067 16.3233 8.32131 16.3232H8.17543C7.00608 16.3233 6.01981 16.3233 5.21496 16.2513C4.37143 16.1759 3.56649 16.0112 2.81478 15.5829C1.96244 15.0973 1.25193 14.3973 0.756817 13.551C0.318572 12.8019 0.150123 11.999 0.0731598 11.161C-6.02603e-05 10.3637 -3.20029e-05 9.38787 1.42097e-06 8.23595V8.0873C-3.20029e-05 6.93538 -6.02603e-05 5.9595 0.0731598 5.16227C0.150123 4.32427 0.318572 3.52132 0.756817 2.77225C1.25193 1.92598 1.96245 1.22593 2.81478 0.740314C3.56649 0.312029 4.37143 0.147376 5.21496 0.0719307C6.01982 -5.5261e-05 7.00609 -2.94151e-05 8.17546 1.26011e-06ZM5.51075 3.37902C4.89347 3.43423 4.62402 3.53088 4.45845 3.62522C4.10894 3.82435 3.82143 4.10918 3.62266 4.44893C3.53131 4.60506 3.43497 4.86235 3.37953 5.46593C3.32192 6.09319 3.32029 6.91539 3.32029 8.16162C3.32029 9.40785 3.32192 10.2301 3.37953 10.8573C3.43497 11.4609 3.53131 11.7182 3.62266 11.8743C3.82143 12.2141 4.10894 12.4989 4.45845 12.698C4.62402 12.7924 4.89347 12.889 5.51075 12.9442C6.15003 13.0014 6.98673 13.003 8.24837 13.003C9.51002 13.003 10.3467 13.0014 10.986 12.9442C11.6033 12.889 11.8727 12.7924 12.0383 12.698C12.3878 12.4989 12.6753 12.2141 12.8741 11.8743C12.9654 11.7182 13.0618 11.4609 13.1172 10.8573C13.1748 10.2301 13.1765 9.40785 13.1765 8.16162C13.1765 6.91539 13.1748 6.09319 13.1172 5.46593C13.0618 4.86235 12.9654 4.60506 12.8741 4.44893C12.6753 4.10918 12.3878 3.82435 12.0383 3.62522C11.8727 3.53088 11.6033 3.43423 10.986 3.37902C10.3467 3.32184 9.51002 3.32029 8.24837 3.32029C6.98673 3.32029 6.15003 3.32184 5.51075 3.37902ZM26.6225 1.26011e-06H26.7683C27.9377 -2.94151e-05 28.924 -5.5261e-05 29.7288 0.0719307C30.5724 0.147376 31.3773 0.312029 32.129 0.740314C32.9813 1.22593 33.6919 1.92598 34.187 2.77225C34.6252 3.52132 34.7937 4.32427 34.8706 5.16227C34.9438 5.9595 34.9438 6.93539 34.9438 8.08731V8.23593C34.9438 9.38786 34.9438 10.3637 34.8706 11.161C34.7937 11.999 34.6252 12.8019 34.187 13.551C33.6919 14.3973 32.9813 15.0973 32.129 15.5829C31.3773 16.0112 30.5724 16.1759 29.7288 16.2513C28.924 16.3233 27.9377 16.3233 26.7684 16.3232H26.6225C25.4531 16.3233 24.4668 16.3233 23.662 16.2513C22.8185 16.1759 22.0135 16.0112 21.2618 15.5829C20.4095 15.0973 19.699 14.3973 19.2039 13.551C18.7656 12.8019 18.5972 11.999 18.5202 11.161C18.447 10.3637 18.447 9.38786 18.447 8.23593V8.08731C18.447 6.93539 18.447 5.95951 18.5202 5.16227C18.5972 4.32427 18.7656 3.52132 19.2039 2.77225C19.699 1.92598 20.4095 1.22593 21.2618 0.740314C22.0135 0.312029 22.8185 0.147376 23.662 0.0719307C24.4669 -5.5261e-05 25.4531 -2.94151e-05 26.6225 1.26011e-06ZM23.9578 3.37902C23.3405 3.43423 23.0711 3.53088 22.9055 3.62522C22.556 3.82435 22.2685 4.10918 22.0697 4.44893C21.9784 4.60506 21.882 4.86235 21.8266 5.46593C21.769 6.09319 21.7673 6.91539 21.7673 8.16162C21.7673 9.40785 21.769 10.2301 21.8266 10.8573C21.882 11.4609 21.9784 11.7182 22.0697 11.8743C22.2685 12.2141 22.556 12.4989 22.9055 12.698C23.0711 12.7924 23.3405 12.889 23.9578 12.9442C24.5971 13.0014 25.4338 13.003 26.6954 13.003C27.9571 13.003 28.7938 13.0014 29.433 12.9442C30.0503 12.889 30.3198 12.7924 30.4853 12.698C30.8348 12.4989 31.1224 12.2141 31.3211 11.8743C31.4125 11.7182 31.5088 11.4609 31.5643 10.8573C31.6219 10.2301 31.6235 9.40785 31.6235 8.16162C31.6235 6.91539 31.6219 6.09319 31.5643 5.46593C31.5088 4.86235 31.4125 4.60506 31.3211 4.44893C31.1224 4.10918 30.8348 3.82435 30.4853 3.62522C30.3198 3.53088 30.0503 3.43423 29.433 3.37902C28.7938 3.32184 27.9571 3.32029 26.6954 3.32029C25.4338 3.32029 24.5971 3.32184 23.9578 3.37902ZM8.17543 18.2041H8.32131C9.49067 18.2041 10.4769 18.2041 11.2818 18.2761C12.1253 18.3515 12.9303 18.5162 13.682 18.9445C14.5343 19.4301 15.2448 20.1301 15.7399 20.9764C16.1782 21.7255 16.3466 22.5284 16.4236 23.3664C16.4968 24.1636 16.4968 25.1395 16.4967 26.2914V26.4401C16.4968 27.592 16.4968 28.5679 16.4236 29.3651C16.3466 30.2031 16.1782 31.0061 15.7399 31.7551C15.2448 32.6014 14.5343 33.3015 13.682 33.7871C12.9303 34.2154 12.1253 34.38 11.2818 34.4555C10.4769 34.5274 9.49063 34.5274 8.32124 34.5274H8.17551C7.00612 34.5274 6.01983 34.5274 5.21496 34.4555C4.37143 34.38 3.56649 34.2154 2.81478 33.7871C1.96245 33.3015 1.25193 32.6014 0.756817 31.7551C0.318572 31.0061 0.150123 30.2031 0.0731598 29.3651C-6.02603e-05 28.5679 -3.20029e-05 27.592 1.42097e-06 26.4401V26.2914C-3.20029e-05 25.1395 -6.02603e-05 24.1636 0.0731598 23.3664C0.150123 22.5284 0.318572 21.7255 0.756817 20.9764C1.25193 20.1301 1.96245 19.4301 2.81478 18.9445C3.56649 18.5162 4.37143 18.3515 5.21496 18.2761C6.01981 18.2041 7.00608 18.2041 8.17543 18.2041ZM5.51075 21.5832C4.89347 21.6384 4.62402 21.735 4.45845 21.8294C4.10894 22.0285 3.82143 22.3133 3.62266 22.6531C3.53131 22.8092 3.43497 23.0665 3.37953 23.6701C3.32192 24.2973 3.32029 25.1195 3.32029 26.3658C3.32029 27.612 3.32192 28.4342 3.37953 29.0615C3.43497 29.665 3.53131 29.9223 3.62266 30.0785C3.82143 30.4182 4.10894 30.703 4.45845 30.9022C4.62402 30.9965 4.89347 31.0932 5.51075 31.1484C6.15003 31.2055 6.98673 31.2071 8.24837 31.2071C9.51002 31.2071 10.3467 31.2055 10.986 31.1484C11.6033 31.0932 11.8727 30.9965 12.0383 30.9022C12.3878 30.703 12.6753 30.4182 12.8741 30.0785C12.9654 29.9223 13.0618 29.665 13.1172 29.0615C13.1748 28.4342 13.1765 27.612 13.1765 26.3658C13.1765 25.1195 13.1748 24.2973 13.1172 23.6701C13.0618 23.0665 12.9654 22.8092 12.8741 22.6531C12.6753 22.3133 12.3878 22.0285 12.0383 21.8294C11.8727 21.735 11.6033 21.6384 10.986 21.5832C10.3467 21.526 9.51002 21.5244 8.24837 21.5244C6.98673 21.5244 6.15003 21.526 5.51075 21.5832Z" fill="#3D3D3D"/>
<path d="M22.5302 20.373C23.5781 20.373 24.4276 21.2114 24.4276 22.2455C24.4276 23.2796 23.5781 24.1179 22.5302 24.1179C21.4823 24.1179 20.6328 23.2796 20.6328 22.2455C20.6328 21.2114 21.4823 20.373 22.5302 20.373Z" fill="#3D3D3D"/>
<path d="M26.9575 24.7421C28.0054 24.7421 28.8549 25.5804 28.8549 26.6145C28.8549 27.6486 28.0054 28.4869 26.9575 28.4869C25.9096 28.4869 25.0601 27.6486 25.0601 26.6145C25.0601 25.5804 25.9096 24.7421 26.9575 24.7421Z" fill="#3D3D3D"/>
<path d="M31.3848 20.373C32.4327 20.373 33.2822 21.2114 33.2822 22.2455C33.2822 23.2796 32.4327 24.1179 31.3848 24.1179C30.3369 24.1179 29.4874 23.2796 29.4874 22.2455C29.4874 21.2114 30.3369 20.373 31.3848 20.373Z" fill="#3D3D3D"/>
<path d="M22.5302 29.1111C23.5781 29.1111 24.4276 29.9494 24.4276 30.9835C24.4276 32.0177 23.5781 32.856 22.5302 32.856C21.4823 32.856 20.6328 32.0177 20.6328 30.9835C20.6328 29.9494 21.4823 29.1111 22.5302 29.1111Z" fill="#3D3D3D"/>
<path d="M31.3848 29.1111C32.4327 29.1111 33.2822 29.9494 33.2822 30.9835C33.2822 32.0177 32.4327 32.856 31.3848 32.856C30.3369 32.856 29.4874 32.0177 29.4874 30.9835C29.4874 29.9494 30.3369 29.1111 31.3848 29.1111Z" fill="#3D3D3D"/>
</svg>
